<svg xmlns="http://www.w3.org/2000/svg" viewBox="0 0 512 512"><path d="M440.3 203.5c-15 0-28.2 6.2-37.9 16.2-35.3-24.6-83.6-40.5-137-43.3L293 52.3l88.3 19.7c.7 15.6 13.7 28 29.5 28 16.3 0 29.5-13.3 29.5-29.7S427.1 40.6 410.8 40.6c-11.3 0-21.1 6.5-26.1 16.1L292.1 35.9c-3.5-.8-7 .9-8.1 4.3L272.5 178c-54.1 2.1-102.9 18.1-138.5 43.1-9.7-10.1-23-16.4-38.1-16.4-55.3 0-74.9 74.7-22.9 100.4-1.7 7.8-2.6 15.9-2.6 24.2 0 84.8 96 153.6 214.4 153.6S499 413.1 499 328.3c0-8.1-.9-16.2-2.6-24.1 51.7-25.6 32.3-100.3-22.1-100.3-.2.2-.2.4 0 .6zM180.7 327.3c0-16.3 13.3-29.7 29.5-29.7 16.3 0 29.5 13.3 29.5 29.7 0 16.3-13.3 29.7-29.5 29.7-16.3 0-29.5-13.4-29.5-29.7zm165.4 75.8c-18 18.1-79.2 18.1-97.3 0-2.1-2.1-2.1-5.4 0-7.5 2.1-2.1 5.4-2.1 7.5 0 13.3 13.3 66.2 13.3 79.5 0 2.1-2.1 5.4-2.1 7.5 0 2.1 2.2 2.1 5.5-.2 7.5zm-2.7-46.1c-16.3 0-29.5-13.3-29.5-29.7 0-16.3 13.3-29.7 29.5-29.7 16.3 0 29.5 13.3 29.5 29.7 0 16.3-13.2 29.7-29.5 29.7z"/></svg>