<svg xmlns="http://www.w3.org/2000/svg" viewBox="0 0 640 512"><path d="M111.4 256.3l5.8 65-5.8 68.3c-.3 2.5-2.2 4.4-4.6 4.4s-4.3-1.9-4.6-4.4l-5-68.3 5-65c.3-2.5 2.2-4.3 4.6-4.3 2.4-.1 4.3 1.8 4.6 4.3zm21.5-26c-.4-2.8-2.5-4.9-5.1-4.9-2.7 0-4.9 2.1-5.2 4.9l-4.6 91 4.6 68.2c.3 2.8 2.5 4.9 5.2 4.9 2.6 0 4.7-2.1 5.1-4.9l5.2-68.2-5.2-91zm25.2-13.4c-.3-3.2-2.9-5.6-6-5.6-3.2 0-5.8 2.4-6.1 5.6l-4.1 104.4 4.1 68c.3 3.2 2.9 5.6 6.1 5.6 3.1 0 5.7-2.4 6-5.6l4.7-68-4.7-104.4zM7.7 283.8c-1.9 0-3.5 1.4-3.8 3.3L0 321.3l3.9 33.8c.3 1.9 1.9 3.3 3.8 3.3 1.9 0 3.5-1.4 3.8-3.3l4.4-33.8-4.4-34.2c-.3-1.9-1.9-3.3-3.8-3.3zm21.7-14.5c-2.1 0-3.9 1.6-4.2 3.8l-5 48.2 5 34c.3 2.2 2.1 3.8 4.2 3.8s3.9-1.6 4.2-3.8l5.7-34-5.7-48.2c-.3-2.2-2.1-3.8-4.2-3.8zm21.1-5.3c-2.4 0-4.4 1.8-4.7 4.3l-4.5 53.5 4.5 34c.3 2.5 2.3 4.3 4.7 4.3s4.4-1.8 4.7-4.3l5.1-34-5.1-53.5c-.3-2.5-2.3-4.3-4.7-4.3zm21.8-7.1c-2.8 0-5.1 2.1-5.4 4.9L63 321.3l4.9 34.1c.3 2.8 2.6 4.9 5.4 4.9 2.8 0 5.1-2.1 5.4-4.9l5.5-34.1-5.5-64.4c-.3-2.8-2.6-4.9-5.4-4.9zm21.3-2.5c-3.1 0-5.6 2.4-5.9 5.5L84.2 321l5.5 34c.3 3.1 2.8 5.5 5.9 5.5s5.6-2.4 5.9-5.5l6.2-34-6.2-71.1c-.3-3.1-2.8-5.5-5.9-5.5zm253.2-123.9c-4.5-1.7-9.3-2.6-14.2-2.6-7.7 0-15 2.1-21.2 5.9-2.1-24.3-12.6-46.3-28.9-62.9C289 55.7 265.5 46.6 240 46.6c-14.9 0-28.9 3.5-41.2 9.7-4.6 2.3-5.8 4.7-5.9 6.9v250.9c.1 2.3 1.7 4.2 3.9 4.7h198.4c19.9 0 36-16.2 36-36.2-.1-17.6-12.7-32.4-29.5-35.3zm-93.5 81.3c-3.2 3.1-7.3 4.7-11.4 4.7s-8.3-1.6-11.4-4.7l-30.5-30.6c-6.3-6.3-6.3-16.5 0-22.8L227 228.1c6.3-6.3 16.4-6.3 22.7 0s6.3 16.5 0 22.8l-12.8 12.9 12.8 12.8c6.3 6.4 6.3 16.5 0 22.8l.1.1z"/></svg>